<svg version="1.1" id="Layer_1" xmlns="http://www.w3.org/2000/svg" xmlns:xlink="http://www.w3.org/1999/xlink" x="0px" y="0px"
	 width="100%" viewBox="0 0 421 79" enable-background="new 0 0 421 79" xml:space="preserve">

<path fill="#F6F6F6" opacity="1.000000" stroke="none" 
	d="
M225.700836,53.673992 
	C223.658859,55.372379 221.865570,56.809639 218.756317,59.301594 
	C222.274902,60.731022 224.996185,61.836548 228.302795,63.179867 
	C228.302795,64.328056 228.302795,66.374741 228.302795,68.632835 
	C221.585541,69.227219 216.058319,68.392708 212.433044,61.792587 
	C211.537842,60.162811 208.032516,59.764648 205.633102,59.198414 
	C195.649292,56.842361 190.098282,48.911957 190.976852,38.008160 
	C191.731873,28.637747 199.076996,21.592648 208.743439,21.033617 
	C216.984039,20.557045 224.008728,22.941891 228.090637,30.578217 
	C232.333221,38.515102 231.541107,46.258266 225.700836,53.673992 
M199.714127,38.768585 
	C199.705490,45.611118 201.955383,49.460602 206.862473,50.999081 
	C213.277802,53.010429 219.369476,50.038124 221.257996,43.975086 
	C223.252853,37.570717 220.275787,31.508387 214.197174,29.596785 
	C207.565186,27.511156 201.973465,30.754171 199.714127,38.768585 
z"/>
<path fill="#F6F6F6" opacity="1.000000" stroke="none" 
	d="
M367.600372,56.590622 
	C356.405365,60.424244 347.958588,56.297493 346.785217,46.383564 
	C346.111847,40.694160 347.514343,35.679337 352.530579,32.463318 
	C358.186279,28.837296 363.890350,29.634338 368.258148,32.555157 
	C371.562347,31.750343 373.965057,31.165113 376.854675,30.461279 
	C376.854675,40.601082 377.177277,49.889267 376.750153,59.142845 
	C376.422516,66.241951 370.945251,70.540924 363.094879,70.898331 
	C354.889648,71.271904 349.833679,67.879623 348.155365,60.462334 
	C351.679169,60.459824 354.716949,59.581249 357.921692,62.811665 
	C361.591797,66.511223 367.027679,63.840431 368.654053,57.623440 
	C368.347717,56.891037 367.974030,56.740829 367.600372,56.590622 
M359.904205,51.142139 
	C363.272675,51.753674 366.511444,51.223701 367.880280,47.881340 
	C368.713135,45.847729 369.098022,42.491230 367.979706,41.072472 
	C366.411499,39.082954 363.170258,37.222752 360.807800,37.406387 
	C358.731750,37.567753 355.997192,40.269192 355.130524,42.469875 
	C353.733154,46.017986 355.390778,49.221535 359.904205,51.142139 
z"/>
<path fill="#9448F5" opacity="1.000000" stroke="none" 
	d="
M29.589230,16.264324 
	C33.341003,21.389990 36.851307,26.231731 40.382977,31.057833 
	C40.554935,31.292818 40.914345,31.390629 41.671165,31.840321 
	C41.671165,25.713013 41.671165,19.856001 41.671165,13.634064 
	C44.208176,13.634064 46.272663,13.634064 48.747555,13.634064 
	C48.747555,24.204723 48.747555,34.882782 48.747555,45.599052 
	C44.595009,47.092495 42.059486,45.379547 39.805096,41.859886 
	C36.717838,37.039917 33.124390,32.544170 28.717192,28.172436 
	C28.717192,34.005726 28.717192,39.839016 28.717192,45.836227 
	C25.947939,45.836227 23.823029,45.836227 21.380648,45.836227 
	C21.380648,35.209244 21.380648,24.644827 21.380648,13.774813 
	C24.423326,12.918528 27.371529,12.402899 29.589230,16.264324 
z"/>
<path fill="#9549F7" opacity="1.000000" stroke="none" 
	d="
M173.932007,55.402046 
	C170.317123,65.926376 162.726349,70.295097 152.523438,68.110962 
	C143.771317,66.237396 138.680161,58.831718 139.741104,49.517612 
	C140.783829,40.363495 147.607803,34.693214 157.378708,34.861893 
	C166.494308,35.019260 173.328201,40.980785 174.037811,49.494331 
	C174.189117,51.309593 174.013245,53.152134 173.932007,55.402046 
M164.433533,45.146011 
	C159.654556,41.227249 154.415207,40.800560 150.512589,44.012302 
	C146.978622,46.920658 145.999741,52.468437 148.276672,56.684258 
	C150.472519,60.749950 155.555405,62.575706 160.324493,61.011791 
	C166.247864,59.069355 168.116623,52.831902 164.433533,45.146011 
z"/>
<path fill="#F4F4F4" opacity="1.000000" stroke="none" 
	d="
M384.407410,54.515640 
	C382.943451,45.997810 385.964783,42.367374 394.294067,42.171021 
	C397.098999,42.104897 399.906830,42.160561 402.723328,42.160561 
	C402.522400,37.289486 398.682892,35.338017 394.687714,37.412216 
	C391.912262,38.853168 388.809601,39.663841 385.001801,41.070610 
	C386.915619,32.917233 391.644073,29.691078 398.998627,30.175840 
	C406.316986,30.658216 410.721588,34.372585 411.126221,40.875011 
	C411.435516,45.846203 411.277283,50.847191 411.297791,55.835041 
	C411.301758,56.800415 411.170624,57.766346 411.044159,59.541679 
	C408.328217,58.850719 405.934448,58.241722 402.483521,57.363781 
	C395.341919,61.146687 389.340881,60.568375 384.407410,54.515640 
M401.326477,51.758579 
	C401.960388,50.471519 402.594299,49.184460 403.499542,47.346481 
	C400.857574,47.346481 399.164886,47.070629 397.610596,47.416561 
	C395.682709,47.845642 393.819092,48.694134 392.064209,49.620159 
	C391.817902,49.750134 392.139709,52.026272 392.552338,52.152496 
	C394.464935,52.737583 396.493927,53.030621 398.499481,53.175343 
	C399.204224,53.226192 399.961090,52.554909 401.326477,51.758579 
z"/>
<path fill="#9348F3" opacity="1.000000" stroke="none" 
	d="
M94.385124,60.410881 
	C90.889519,52.523518 91.401947,45.419010 97.249390,39.313507 
	C101.754318,34.609772 110.054466,33.358994 116.313797,36.233742 
	C121.033302,38.401291 124.437988,41.787674 125.360237,47.437016 
	C121.672462,47.836582 118.683571,48.378674 115.985847,44.754654 
	C112.936752,40.658607 106.180565,40.959724 102.623901,44.553139 
	C99.075951,48.137741 98.975166,54.961174 102.415184,58.683311 
	C105.769127,62.312305 112.659714,62.787891 115.801353,58.789028 
	C118.587402,55.242794 121.581169,54.979023 125.318108,55.757198 
	C124.514664,61.883457 120.433800,66.350662 114.137260,67.998039 
	C106.096123,70.101852 99.643936,67.705536 94.385124,60.410881 
z"/>
<path fill="#9247F1" opacity="1.000000" stroke="none" 
	d="
M30.000771,60.330856 
	C48.099884,60.330944 65.699112,60.330944 83.660095,60.330944 
	C83.660095,63.004745 83.660095,65.358803 83.660095,67.961975 
	C59.542397,67.961975 35.522400,67.961975 11.239679,67.961975 
	C11.239679,65.537712 11.239679,63.278389 11.239679,60.330769 
	C17.323122,60.330769 23.412004,60.330769 30.000771,60.330856 
z"/>
<path fill="#F4F4F4" opacity="1.000000" stroke="none" 
	d="
M313.080688,52.687099 
	C309.800568,46.032333 310.286896,40.060848 315.034485,34.803955 
	C319.233154,30.154888 327.139343,28.884212 333.558685,31.456369 
	C339.176575,33.707397 342.602264,38.947483 342.516296,45.158356 
	C342.427765,51.557251 338.653748,56.880859 332.804077,58.858318 
	C325.473419,61.336418 318.360687,59.218647 313.080688,52.687099 
M320.261902,49.021957 
	C322.369446,52.033966 325.352905,53.732883 328.746490,52.231617 
	C330.878662,51.288372 333.599182,48.944962 333.789978,47.006699 
	C334.052063,44.343678 332.941193,40.398849 330.986481,38.989304 
	C329.061249,37.601006 324.902039,37.762203 322.525238,38.907867 
	C318.867035,40.671188 318.251831,44.467117 320.261902,49.021957 
z"/>
<path fill="#9A4BFF" opacity="1.000000" stroke="none" 
	d="
M96.223083,22.022055 
	C94.870285,19.706665 93.995384,17.396837 92.855576,14.387615 
	C118.024361,14.387615 141.997208,14.387615 166.212708,14.387615 
	C166.212708,16.718092 166.212708,18.989689 166.212708,22.027618 
	C143.057602,22.027618 119.879288,22.027618 96.223083,22.022055 
z"/>
<path fill="#F4F4F4" opacity="1.000000" stroke="none" 
	d="
M264.306915,34.407452 
	C264.307037,42.814407 264.307037,50.759686 264.307037,59.485214 
	C261.540558,58.857025 259.289337,58.345848 257.038147,57.834671 
	C257.103363,57.540691 257.168610,57.246716 257.233826,56.952740 
	C255.283829,57.764774 253.394135,58.797993 251.372986,59.349068 
	C244.127945,61.324448 237.634628,57.350784 236.893646,49.893620 
	C236.292206,43.840874 236.771530,37.680740 236.771530,31.274622 
	C239.258179,31.274622 241.796997,31.274622 244.799255,31.274622 
	C244.799255,36.192459 244.813629,40.972157 244.794647,45.751717 
	C244.779739,49.508881 245.953018,52.605896 250.239960,52.532097 
	C254.256546,52.462955 255.983414,49.645443 256.033264,45.832333 
	C256.095825,41.049088 256.048309,36.264404 256.048309,30.555490 
	C258.942413,32.685318 263.450073,27.475197 264.306915,34.407452 
z"/>
<path fill="#EEEEEE" opacity="1.000000" stroke="none" 
	d="
M288.419495,37.183533 
	C288.419495,34.909504 288.419495,33.110821 288.419495,30.347858 
	C291.387787,31.148079 293.701080,31.771727 297.122375,32.694073 
	C299.306305,32.186623 303.004578,31.327299 307.066650,30.383450 
	C307.066650,33.464436 307.066650,35.588951 307.066650,38.035988 
	C305.692322,38.254662 304.286133,38.563324 302.863770,38.688591 
	C298.802521,39.046280 297.014832,41.478081 296.924683,45.288158 
	C296.819763,49.722786 296.900208,54.161797 296.900208,58.809227 
	C293.964722,58.809227 291.533264,58.809227 288.419464,58.809227 
	C288.419464,51.771751 288.419464,44.715313 288.419495,37.183533 
z"/>
<path fill="#F7F7F7" opacity="1.000000" stroke="none" 
	d="
M280.464172,40.076492 
	C280.464172,46.529926 280.464172,52.494080 280.464172,58.733360 
	C277.623260,58.733360 275.089539,58.733360 272.392456,58.733360 
	C272.392456,49.477215 272.392456,40.421822 272.392456,31.177284 
	C275.070648,31.177284 277.515045,31.177284 280.464172,31.177284 
	C280.464172,34.020615 280.464172,36.803913 280.464172,40.076492 
z"/>
<path fill="#984AFC" opacity="1.000000" stroke="none" 
	d="
M66.729004,38.943985 
	C66.728958,30.317194 66.728958,22.184422 66.728958,13.670308 
	C69.098457,13.670308 71.163116,13.670308 73.635040,13.670308 
	C73.635040,24.171080 73.635040,34.845123 73.635040,45.762291 
	C71.544289,45.762291 69.464272,45.762291 66.729057,45.762291 
	C66.729057,43.616222 66.729057,41.527111 66.729004,38.943985 
z"/>
<path fill="#F2F2F2" opacity="1.000000" stroke="none" 
	d="
M281.062103,24.147556 
	C278.776154,27.366167 275.820007,28.137066 273.264954,25.803127 
	C271.964203,24.614929 271.083160,21.133228 271.882141,19.933151 
	C272.939728,18.344631 275.961517,17.024250 277.900543,17.295319 
	C281.158936,17.750832 282.156036,20.557467 281.062103,24.147556 
z"/>
<path fill="#060606" opacity="1.000000" stroke="none" 
	d="
M199.771042,38.349533 
	C201.973465,30.754171 207.565186,27.511156 214.197174,29.596785 
	C220.275787,31.508387 223.252853,37.570717 221.257996,43.975086 
	C219.369476,50.038124 213.277802,53.010429 206.862473,50.999081 
	C201.955383,49.460602 199.705490,45.611118 199.771042,38.349533 
z"/>
<path fill="#070707" opacity="1.000000" stroke="none" 
	d="
M359.497650,51.046062 
	C355.390778,49.221535 353.733154,46.017986 355.130524,42.469875 
	C355.997192,40.269192 358.731750,37.567753 360.807800,37.406387 
	C363.170258,37.222752 366.411499,39.082954 367.979706,41.072472 
	C369.098022,42.491230 368.713135,45.847729 367.880280,47.881340 
	C366.511444,51.223701 363.272675,51.753674 359.497650,51.046062 
z"/>
<path fill="#020102" opacity="1.000000" stroke="none" 
	d="
M367.814209,56.806801 
	C367.974030,56.740829 368.347717,56.891037 368.595032,57.241653 
	C368.321838,57.302372 368.174957,57.162678 367.814209,56.806801 
z"/>
<path fill="#040207" opacity="1.000000" stroke="none" 
	d="
M164.662781,45.456253 
	C168.116623,52.831902 166.247864,59.069355 160.324493,61.011791 
	C155.555405,62.575706 150.472519,60.749950 148.276672,56.684258 
	C145.999741,52.468437 146.978622,46.920658 150.512589,44.012302 
	C154.415207,40.800560 159.654556,41.227249 164.662781,45.456253 
z"/>
<path fill="#161616" opacity="1.000000" stroke="none" 
	d="
M401.010315,51.985970 
	C399.961090,52.554909 399.204224,53.226192 398.499481,53.175343 
	C396.493927,53.030621 394.464935,52.737583 392.552338,52.152496 
	C392.139709,52.026272 391.817902,49.750134 392.064209,49.620159 
	C393.819092,48.694134 395.682709,47.845642 397.610596,47.416561 
	C399.164886,47.070629 400.857574,47.346481 403.499542,47.346481 
	C402.594299,49.184460 401.960388,50.471519 401.010315,51.985970 
z"/>
<path fill="#080808" opacity="1.000000" stroke="none" 
	d="
M320.092682,48.675095 
	C318.251831,44.467117 318.867035,40.671188 322.525238,38.907867 
	C324.902039,37.762203 329.061249,37.601006 330.986481,38.989304 
	C332.941193,40.398849 334.052063,44.343678 333.789978,47.006699 
	C333.599182,48.944962 330.878662,51.288372 328.746490,52.231617 
	C325.352905,53.732883 322.369446,52.033966 320.092682,48.675095 
z"/>
</svg>