<svg version="1.1" id="Layer_1" xmlns="http://www.w3.org/2000/svg" xmlns:xlink="http://www.w3.org/1999/xlink" x="0px" y="0px"
	 width="100%" viewBox="0 0 250 268" enable-background="new 0 0 250 268" xml:space="preserve">
<path fill="#9C4FFF" opacity="1.000000" stroke="none" 
	d="
M135.693878,137.356216 
	C136.715393,138.659027 137.511871,139.670380 139.222534,141.842575 
	C139.222534,127.940811 139.222534,115.318069 139.222534,102.410156 
	C144.673309,102.410156 149.403824,102.410156 154.486084,102.410156 
	C154.486084,124.440079 154.486084,146.324020 154.492218,168.207962 
	C145.457077,170.679428 142.229111,169.629349 136.993423,162.395035 
	C130.165466,152.960617 123.378738,143.496353 116.557961,134.056732 
	C115.623032,132.762833 114.594139,131.536835 112.680367,129.094681 
	C112.680367,143.128265 112.680367,155.783127 112.680367,168.715530 
	C107.291183,168.715530 102.553230,168.715530 97.466713,168.715530 
	C97.466713,146.731384 97.466713,124.841446 97.466713,102.939934 
	C106.393654,100.329330 109.721825,101.454498 114.985481,108.760368 
	C121.793320,118.209534 128.639282,127.631233 135.693878,137.356216 
z"/>
<path fill="#9E52FF" opacity="1.000000" stroke="none" 
	d="
M194.567276,180.251160 
	C195.846603,181.023727 197.333099,181.745316 197.393295,182.570923 
	C197.656738,186.183411 197.506729,189.826050 197.506729,193.734314 
	C184.627197,193.734314 172.232941,193.734314 159.529388,193.734314 
	C159.529388,189.302444 159.529388,185.077621 159.529388,180.248032 
	C171.233398,180.248032 182.675705,180.248032 194.567276,180.251160 
z"/>
<path fill="#9D51FF" opacity="1.000000" stroke="none" 
	d="
M78.995987,79.985306 
	C84.131607,79.985306 88.767960,79.985306 93.754150,79.985306 
	C93.754150,84.577293 93.754150,88.806572 93.754150,93.394844 
	C81.333115,93.394844 68.957726,93.394844 56.316265,93.394844 
	C56.316265,89.039291 56.316265,84.933502 56.316265,79.985313 
	C63.675968,79.985313 71.086342,79.985313 78.995987,79.985306 
z"/>
</svg>